<?xml version="1.0" encoding="UTF-8" standalone="no"?>
<!-- Created with Inkscape (http://www.inkscape.org/) -->

<svg
  class="fill-current"
   version="1.1"
   id="svg1569"
   xml:space="preserve"
   width="682.66669"
   height="682.66669"
   viewBox="0 0 682.66669 682.66669"
   xmlns="http://www.w3.org/2000/svg"
   xmlns:svg="http://www.w3.org/2000/svg"><defs
     id="defs1573"><clipPath
       clipPathUnits="userSpaceOnUse"
       id="clipPath1583"><path
         d="M 0,512 H 512 V 0 H 0 Z"
         id="path1581" /></clipPath></defs><g
     id="g1575"
     transform="matrix(1.3333333,0,0,-1.3333333,0,682.66667)"><g
       id="g1577"><g
         id="g1579"
         clip-path="url(#clipPath1583)"><g
           id="g1585"
           transform="translate(217.0742,296.6831)"><path
             d="m 0,0 c 8.044,-7.622 17.883,-14.806 29.646,-20.853 2.417,-1.242 4.915,-2.436 7.494,-3.575 1.136,-0.502 2.438,-0.502 3.574,0 2.578,1.139 5.076,2.333 7.493,3.575 39.736,20.427 57.68,53.789 57.68,73.427 0,22.471 -17.066,40.685 -38.12,40.685 -11.525,0 -21.852,-5.459 -28.84,-14.084 -6.989,8.625 -17.315,14.084 -28.84,14.084 -21.054,0 -38.125,-18.214 -38.125,-40.685 0,-7.365 2.524,-16.659 7.774,-26.478"
             style="fill:none;stroke:#000000;stroke-width:15;stroke-linecap:round;stroke-linejoin:round;stroke-miterlimit:10;stroke-dasharray:none;stroke-opacity:1"
             id="path1587" /></g><g
           id="g1589"
           transform="translate(442.1045,271.5879)"><path
             d="M 0,0 C 26.68,15.439 16.627,41.789 16.627,41.789 L -22.867,31.081"
             style="fill:none;stroke:#000000;stroke-width:15;stroke-linecap:round;stroke-linejoin:round;stroke-miterlimit:10;stroke-dasharray:none;stroke-opacity:1"
             id="path1591" /></g><g
           id="g1593"
           transform="translate(387.5801,293.2979)"><path
             d="m 0,0 c -23.094,-9.873 -40.311,-30.359 -45.798,-55.319 l -2.177,-9.899"
             style="fill:none;stroke:#000000;stroke-width:15;stroke-linecap:round;stroke-linejoin:round;stroke-miterlimit:10;stroke-dasharray:none;stroke-opacity:1"
             id="path1595" /></g><g
           id="g1597"
           transform="translate(408.3452,112.627)"><path
             d="m 0,0 47.37,-28.708 c 3.834,-2.324 8.795,-1.647 11.813,1.669 6.537,7.185 16.333,21.939 16.676,46.08 0.077,5.338 -4.278,9.689 -9.617,9.583 L 21.88,27.737"
             style="fill:none;stroke:#000000;stroke-width:15;stroke-linecap:round;stroke-linejoin:round;stroke-miterlimit:10;stroke-dasharray:none;stroke-opacity:1"
             id="path1599" /></g><g
           id="g1601"
           transform="translate(355.707,203.3794)"><path
             d="m 0,0 c -8.423,16.142 -23.66,34.719 -40.172,35.936 -14.893,1.097 -28.849,-6.743 -31.688,-21.404 -2.453,-12.659 4.362,-24.959 15.706,-29.911 -4.481,-28.165 8.146,-57.497 34.132,-73.001 30.884,-18.427 70.007,-10.996 92.196,15.931 3.688,4.476 2.577,11.174 -2.403,14.145 l -13.735,8.196"
             style="fill:none;stroke:#000000;stroke-width:15;stroke-linecap:round;stroke-linejoin:round;stroke-miterlimit:10;stroke-dasharray:none;stroke-opacity:1"
             id="path1603" /></g><g
           id="g1605"
           transform="translate(330.6484,156.3999)"><path
             d="m 0,0 40.409,73.863 c 14.033,25.651 41.16,41.377 70.393,40.808 l 63.006,-1.225 c 0,0 2.262,-28.111 -27.677,-35.45 0,0 14.356,-38.216 -32.053,-50.091 0,0 4.562,-31.238 -68.161,-33.305"
             style="fill:none;stroke:#000000;stroke-width:15;stroke-linecap:round;stroke-linejoin:round;stroke-miterlimit:10;stroke-dasharray:none;stroke-opacity:1"
             id="path1607" /></g><g
           id="g1609"
           transform="translate(448.3486,115.6489)"><path
             d="M 0,0 25.005,-11.267"
             style="fill:none;stroke:#000000;stroke-width:15;stroke-linecap:round;stroke-linejoin:round;stroke-miterlimit:10;stroke-dasharray:none;stroke-opacity:1"
             id="path1611" /></g><g
           id="g1613"
           transform="translate(312.3501,215.2471)"><path
             d="M 0,0 0.096,-0.019"
             style="fill:none;stroke:#000000;stroke-width:15;stroke-linecap:round;stroke-linejoin:round;stroke-miterlimit:10;stroke-dasharray:none;stroke-opacity:1"
             id="path1615" /></g><g
           id="g1617"
           transform="translate(286.6763,196.4126)"><path
             d="M 0,0 -12.717,-5.339"
             style="fill:none;stroke:#000000;stroke-width:15;stroke-linecap:round;stroke-linejoin:round;stroke-miterlimit:10;stroke-dasharray:none;stroke-opacity:1"
             id="path1619" /></g><g
           id="g1621"
           transform="translate(172.3545,228.2427)"><path
             d="m 0,0 -2.141,9.736 c -6.278,28.556 -27.907,51.257 -56.127,58.908 l -60.822,16.49 c 0,0 -10.054,-26.349 16.627,-41.789"
             style="fill:none;stroke:#000000;stroke-width:15;stroke-linecap:round;stroke-linejoin:round;stroke-miterlimit:10;stroke-dasharray:none;stroke-opacity:1"
             id="path1623" /></g><g
           id="g1625"
           transform="translate(104.4414,113.1064)"><path
             d="m 0,0 -48.161,-29.187 c -3.834,-2.324 -8.795,-1.647 -11.812,1.669 -6.538,7.185 -16.334,21.938 -16.677,46.079 -0.077,5.339 4.278,9.69 9.617,9.584 l 44.834,-0.896"
             style="fill:none;stroke:#000000;stroke-width:15;stroke-linecap:round;stroke-linejoin:round;stroke-miterlimit:10;stroke-dasharray:none;stroke-opacity:1"
             id="path1627" /></g><g
           id="g1629"
           transform="translate(102.2529,153.271)"><path
             d="m 0,0 -13.735,-8.195 c -4.981,-2.972 -6.092,-9.67 -2.403,-14.145 19.573,-23.753 52.32,-32.322 80.968,-21.368"
             style="fill:none;stroke:#000000;stroke-width:15;stroke-linecap:round;stroke-linejoin:round;stroke-miterlimit:10;stroke-dasharray:none;stroke-opacity:1"
             id="path1631" /></g><g
           id="g1633"
           transform="translate(194.415,128.0942)"><path
             d="m 0,0 c 14.878,16.194 21.451,38.387 18.027,59.906 11.345,4.952 18.16,17.252 15.707,29.911 -2.84,14.661 -16.795,22.501 -31.688,21.404 -15.991,-1.178 -30.785,-18.638 -39.354,-34.399"
             style="fill:none;stroke:#000000;stroke-width:15;stroke-linecap:round;stroke-linejoin:round;stroke-miterlimit:10;stroke-dasharray:none;stroke-opacity:1"
             id="path1635" /></g><g
           id="g1637"
           transform="translate(181.3477,156.3999)"><path
             d="m 0,0 -40.41,73.863 c -14.033,25.651 -41.159,41.377 -70.392,40.808 l -63.007,-1.225 c 0,0 -2.261,-28.111 27.677,-35.45 0,0 -14.356,-38.216 32.054,-50.091 0,0 -4.563,-31.238 68.16,-33.305"
             style="fill:none;stroke:#000000;stroke-width:15;stroke-linecap:round;stroke-linejoin:round;stroke-miterlimit:10;stroke-dasharray:none;stroke-opacity:1"
             id="path1639" /></g><g
           id="g1641"
           transform="translate(63.647,115.6489)"><path
             d="M 0,0 -25.004,-11.267"
             style="fill:none;stroke:#000000;stroke-width:15;stroke-linecap:round;stroke-linejoin:round;stroke-miterlimit:10;stroke-dasharray:none;stroke-opacity:1"
             id="path1643" /></g><g
           id="g1645"
           transform="translate(199.6455,215.2471)"><path
             d="M 0,0 -0.095,-0.019"
             style="fill:none;stroke:#000000;stroke-width:15;stroke-linecap:round;stroke-linejoin:round;stroke-miterlimit:10;stroke-dasharray:none;stroke-opacity:1"
             id="path1647" /></g><g
           id="g1649"
           transform="translate(225.3193,196.4126)"><path
             d="M 0,0 12.717,-5.339"
             style="fill:none;stroke:#000000;stroke-width:15;stroke-linecap:round;stroke-linejoin:round;stroke-miterlimit:10;stroke-dasharray:none;stroke-opacity:1"
             id="path1651" /></g><g
           id="g1653"
           transform="translate(182.0996,402.3916)"><path
             d="M 0,0 -7.829,7.876"
             style="fill:none;stroke:#000000;stroke-width:15;stroke-linecap:round;stroke-linejoin:round;stroke-miterlimit:10;stroke-dasharray:none;stroke-opacity:1"
             id="path1655" /></g><g
           id="g1657"
           transform="translate(165.8179,379.4189)"><path
             d="M 0,0 -10.892,2.732"
             style="fill:none;stroke:#000000;stroke-width:15;stroke-linecap:round;stroke-linejoin:round;stroke-miterlimit:10;stroke-dasharray:none;stroke-opacity:1"
             id="path1659" /></g><g
           id="g1661"
           transform="translate(202.4932,429.4536)"><path
             d="M 0,0 2.668,-10.91"
             style="fill:none;stroke:#000000;stroke-width:15;stroke-linecap:round;stroke-linejoin:round;stroke-miterlimit:10;stroke-dasharray:none;stroke-opacity:1"
             id="path1663" /></g><g
           id="g1665"
           transform="translate(329.9004,402.3916)"><path
             d="M 0,0 7.829,7.876"
             style="fill:none;stroke:#000000;stroke-width:15;stroke-linecap:round;stroke-linejoin:round;stroke-miterlimit:10;stroke-dasharray:none;stroke-opacity:1"
             id="path1667" /></g><g
           id="g1669"
           transform="translate(346.1821,379.4189)"><path
             d="M 0,0 10.892,2.732"
             style="fill:none;stroke:#000000;stroke-width:15;stroke-linecap:round;stroke-linejoin:round;stroke-miterlimit:10;stroke-dasharray:none;stroke-opacity:1"
             id="path1671" /></g><g
           id="g1673"
           transform="translate(309.5068,429.4536)"><path
             d="M 0,0 -2.668,-10.91"
             style="fill:none;stroke:#000000;stroke-width:15;stroke-linecap:round;stroke-linejoin:round;stroke-miterlimit:10;stroke-dasharray:none;stroke-opacity:1"
             id="path1675" /></g></g></g></g></svg>
